<svg width="299" height="95" viewBox="0 0 299 95" fill="none" xmlns="http://www.w3.org/2000/svg">
<path d="M67 75H61V87H67V75Z" stroke="#FF0000" stroke-width="4"/>
<path d="M117 2H12C6.47715 2 2 6.47715 2 12V65C2 70.5229 6.47715 75 12 75H117C122.523 75 127 70.5229 127 65V12C127 6.47715 122.523 2 117 2Z" stroke="white" stroke-width="4"/>
<path d="M52 87H77C80.7277 87 83.8599 89.5495 84.748 93H44.252C45.1401 89.5495 48.2723 87 52 87Z" stroke="white" stroke-width="4"/>
<path d="M48.9453 31.1875C48.9453 29.2656 48.3438 27.8672 47.1406 26.9922C45.9375 26.1172 43.9844 25.6797 41.2812 25.6797H36.4297V37.5625H41.5625C44.0938 37.5625 45.9531 37.0625 47.1406 36.0625C48.3438 35.0625 48.9453 33.4375 48.9453 31.1875ZM51.3125 46.0469C51.3125 43.8438 50.5781 42.2344 49.1094 41.2188C47.6406 40.1875 45.2891 39.6719 42.0547 39.6719H36.4297V52.8906C38.5859 52.9844 40.8828 53.0312 43.3203 53.0312C45.9922 53.0312 47.9922 52.4688 49.3203 51.3438C50.6484 50.2031 51.3125 48.4375 51.3125 46.0469ZM27.875 55V53.7578L31.9062 53.125V25.4219L27.875 24.8125V23.5703H42.2422C46.2266 23.5703 49.1406 24.1641 50.9844 25.3516C52.8281 26.5234 53.75 28.3906 53.75 30.9531C53.75 32.7969 53.1797 34.3672 52.0391 35.6641C50.9141 36.9609 49.3281 37.8281 47.2812 38.2656C50.1094 38.5625 52.2969 39.3906 53.8438 40.75C55.3906 42.0938 56.1641 43.8281 56.1641 45.9531C56.1641 48.9688 55.1172 51.2578 53.0234 52.8203C50.9453 54.3672 47.9062 55.1406 43.9062 55.1406L33.875 55H27.875Z" fill="white"/>
<path d="M102.25 53.3594C100.438 53.9531 98.5547 54.4531 96.6016 54.8594C94.6484 55.2656 92.5469 55.4688 90.2969 55.4688C85.2031 55.4688 81.2344 54.0938 78.3906 51.3438C75.5469 48.5938 74.125 44.6952 74.125 39.6483C74.125 34.1483 75.5 30.039 78.25 27.3202C81.0156 24.5858 85.0625 23.2188 90.3906 23.2188C94.2031 23.2188 97.8828 23.6875 101.43 24.625V31.375H99.8594L99.2266 27.4844C98.1484 26.7188 96.8516 26.1328 95.3359 25.7266C93.8359 25.3047 92.25 25.0938 90.5781 25.0938C86.5781 25.0938 83.6484 26.2891 81.7891 28.6797C79.9453 31.0547 79.0234 34.6953 79.0234 39.6016C79.0234 44.2109 79.9766 47.7109 81.8828 50.1016C83.7891 52.4766 86.6094 53.6641 90.3438 53.6641C91.6562 53.6641 93.0312 53.5078 94.4688 53.1953C95.9062 52.8828 97 52.5078 97.75 52.0703V43.1405L93.7188 42.5312V41.2655H105.32V42.5312L102.25 43.1405V53.3594Z" fill="white"/>
<path d="M57.7891 40.4844V36.8984H70.2578V40.4844H57.7891Z" fill="#BD1C1C"/>
<path d="M163.992 39.0625C163.992 34.6719 162.805 31.3438 160.43 29.0781C158.07 26.8125 154.695 25.6797 150.305 25.6797H146.086V52.7969C147.961 52.9219 150.188 52.9844 152.766 52.9844C156.609 52.9844 159.438 51.8516 161.25 49.5859C163.078 47.3203 163.992 43.8125 163.992 39.0625ZM151.805 23.5703C157.602 23.5703 161.898 24.8672 164.695 27.4609C167.492 30.0391 168.891 33.9219 168.891 39.1094C168.891 44.3594 167.539 48.3359 164.836 51.0391C162.148 53.7422 158.125 55.0938 152.766 55.0938L141.562 55H137.531V53.7578L141.562 53.125V25.4219L137.531 24.8125V23.5703H151.805Z" fill="#BD1C1C"/>
<path d="M176.93 43.9141V44.3359C176.93 46.4922 177.164 48.1719 177.633 49.375C178.117 50.5625 178.852 51.4688 179.836 52.0938C180.836 52.7188 182.141 53.0312 183.75 53.0312C184.594 53.0312 185.594 52.9609 186.75 52.8203C187.906 52.6797 188.859 52.5234 189.609 52.3516V53.6641C188.859 54.1484 187.836 54.5703 186.539 54.9297C185.258 55.2891 183.945 55.4688 182.602 55.4688C179.18 55.4688 176.672 54.5469 175.078 52.7031C173.5 50.8594 172.711 47.8984 172.711 43.8203C172.711 39.9766 173.516 37.1094 175.125 35.2188C176.734 33.3281 179.031 32.3828 182.016 32.3828C187.656 32.3828 190.477 35.5859 190.477 41.9922V43.9141H176.93ZM182.016 34.2578C180.391 34.2578 179.141 34.9141 178.266 36.2266C177.406 37.5391 176.977 39.4766 176.977 42.0391H186.398C186.398 39.2422 186.039 37.25 185.32 36.0625C184.602 34.8594 183.5 34.2578 182.016 34.2578ZM205.219 55.4688H203.484L194.414 34.6094L192.164 34.0234V32.9688H202.43V34.0234L198.938 34.6562L205.359 49.8672L211.5 34.6094L208.008 34.0234V32.9688H216.164V34.0234L214.055 34.5156L205.219 55.4688ZM222.258 43.9141V44.3359C222.258 46.4922 222.492 48.1719 222.961 49.375C223.445 50.5625 224.18 51.4688 225.164 52.0938C226.164 52.7188 227.469 53.0312 229.078 53.0312C229.922 53.0312 230.922 52.9609 232.078 52.8203C233.234 52.6797 234.188 52.5234 234.938 52.3516V53.6641C234.188 54.1484 233.164 54.5703 231.867 54.9297C230.586 55.2891 229.273 55.4688 227.93 55.4688C224.508 55.4688 222 54.5469 220.406 52.7031C218.828 50.8594 218.039 47.8984 218.039 43.8203C218.039 39.9766 218.844 37.1094 220.453 35.2188C222.062 33.3281 224.359 32.3828 227.344 32.3828C232.984 32.3828 235.805 35.5859 235.805 41.9922V43.9141H222.258ZM227.344 34.2578C225.719 34.2578 224.469 34.9141 223.594 36.2266C222.734 37.5391 222.305 39.4766 222.305 42.0391H231.727C231.727 39.2422 231.367 37.25 230.648 36.0625C229.93 34.8594 228.828 34.2578 227.344 34.2578ZM246.094 53.3594L249.867 53.9453V55H238.453V53.9453L242.203 53.3594V23.3125L238.453 22.75V21.6953H246.094V53.3594ZM273.023 43.8672C273.023 51.6016 269.586 55.4688 262.711 55.4688C259.398 55.4688 256.898 54.4766 255.211 52.4922C253.523 50.5078 252.68 47.6328 252.68 43.8672C252.68 40.1484 253.523 37.3047 255.211 35.3359C256.898 33.3672 259.461 32.3828 262.898 32.3828C266.242 32.3828 268.766 33.3516 270.469 35.2891C272.172 37.2109 273.023 40.0703 273.023 43.8672ZM268.805 43.8672C268.805 40.4922 268.312 38.0469 267.328 36.5312C266.344 35.0156 264.805 34.2578 262.711 34.2578C260.664 34.2578 259.18 34.9844 258.258 36.4375C257.352 37.8906 256.898 40.3672 256.898 43.8672C256.898 47.4141 257.359 49.9297 258.281 51.4141C259.219 52.8828 260.695 53.6172 262.711 53.6172C264.773 53.6172 266.305 52.8516 267.305 51.3203C268.305 49.7891 268.805 47.3047 268.805 43.8672ZM278.414 34.6094L275.906 34.0234V32.9688H282.094L282.141 34.2578C282.797 33.6953 283.672 33.2422 284.766 32.8984C285.875 32.5547 287 32.3828 288.141 32.3828C290.953 32.3828 293.125 33.3594 294.656 35.3125C296.203 37.2656 296.977 40.0703 296.977 43.7266C296.977 47.4609 296.133 50.3516 294.445 52.3984C292.773 54.4453 290.352 55.4688 287.18 55.4688C285.414 55.4688 283.734 55.2969 282.141 54.9531C282.234 56.0781 282.281 56.9609 282.281 57.6016V63.5547L286.125 64.1172V65.2188H275.625V64.1172L278.414 63.5547V34.6094ZM292.758 43.7266C292.758 40.7266 292.266 38.5 291.281 37.0469C290.312 35.5781 288.836 34.8438 286.852 34.8438C285.023 34.8438 283.5 35.1016 282.281 35.6172V53.2188C283.672 53.4844 285.195 53.6172 286.852 53.6172C290.789 53.6172 292.758 50.3203 292.758 43.7266Z" fill="white"/>
</svg>
